<svg width="48" height="48" viewBox="0 0 48 48" fill="none" xmlns="http://www.w3.org/2000/svg">
<path d="M16.1547 32.839V31.6161C16.1547 31.1615 15.9741 30.7255 15.6526 30.404C15.3311 30.0825 14.8951 29.9019 14.4404 29.9019H10.2861V25.7133C10.2861 25.2587 10.4667 24.8226 10.7882 24.5011C11.1097 24.1796 11.5458 23.999 12.0004 23.999H15.1033" stroke="black" stroke-width="1.6" stroke-linecap="round" stroke-linejoin="round"/>
<path d="M16.1547 15.1934V16.4162C16.1547 16.8709 15.9741 17.3069 15.6526 17.6284C15.3311 17.9499 14.8951 18.1305 14.4404 18.1305H10.2861V22.2848C10.2861 22.7395 10.4667 23.1755 10.7882 23.497C11.1097 23.8185 11.5458 23.9991 12.0004 23.9991H15.1033" stroke="black" stroke-width="1.6" stroke-linecap="round" stroke-linejoin="round"/>
<path d="M31.835 15.1934V16.4162C31.835 16.8709 32.0156 17.3069 32.3371 17.6284C32.6586 17.9499 33.0946 18.1305 33.5492 18.1305H37.7035V22.2848C37.7035 22.7395 37.5229 23.1755 37.2015 23.497C36.88 23.8185 36.4439 23.9991 35.9893 23.9991H32.8807" stroke="black" stroke-width="1.6" stroke-linecap="round" stroke-linejoin="round"/>
<path d="M31.8467 32.8617V31.6389C31.8467 31.1842 32.0273 30.7482 32.3488 30.4267C32.6703 30.1052 33.1063 29.9246 33.561 29.9246H37.7153V25.7475C37.7153 25.2928 37.5346 24.8568 37.2131 24.5353C36.8916 24.2138 36.4556 24.0332 36.001 24.0332H32.8924" stroke="black" stroke-width="1.6" stroke-linecap="round" stroke-linejoin="round"/>
<path d="M37.7147 29.9141V30.857C37.7147 32.6756 36.9922 34.4197 35.7063 35.7057C34.4203 36.9917 32.6762 37.7141 30.8576 37.7141H28.0004C27.5458 37.7141 27.1097 37.5335 26.7882 37.2121C26.4667 36.8906 26.2861 36.4545 26.2861 35.9999V30.857C26.2861 30.2508 26.0453 29.6694 25.6167 29.2408C25.188 28.8121 24.6066 28.5713 24.0004 28.5713C23.3942 28.5713 22.8128 28.8121 22.3842 29.2408C21.9555 29.6694 21.7147 30.2508 21.7147 30.857V35.9999C21.7147 36.4545 21.5341 36.8906 21.2126 37.2121C20.8911 37.5335 20.4551 37.7141 20.0004 37.7141H17.1433C15.3246 37.7141 13.5805 36.9917 12.2945 35.7057C11.0086 34.4197 10.2861 32.6756 10.2861 30.857V29.2399" stroke="black" stroke-width="1.6" stroke-linecap="round" stroke-linejoin="round"/>
<path d="M10.2861 19.0795V17.1423C10.2861 15.3237 11.0086 13.5796 12.2945 12.2936C13.5805 11.0076 15.3246 10.2852 17.1433 10.2852H20.0004C20.4551 10.2852 20.8911 10.4658 21.2126 10.7872C21.5341 11.1087 21.7147 11.5448 21.7147 11.9994V17.1423C21.7147 17.7485 21.9555 18.3299 22.3842 18.7585C22.8128 19.1872 23.3942 19.428 24.0004 19.428C24.6066 19.428 25.188 19.1872 25.6167 18.7585C26.0453 18.3299 26.2861 17.7485 26.2861 17.1423V11.9994C26.2861 11.5448 26.4667 11.1087 26.7882 10.7872C27.1097 10.4658 27.5458 10.2852 28.0004 10.2852H30.8576C32.6762 10.2852 34.4203 11.0076 35.7063 12.2936C36.9922 13.5796 37.7147 15.3237 37.7147 17.1423V18.7651" stroke="black" stroke-width="1.6" stroke-linecap="round" stroke-linejoin="round"/>
<path d="M20.5205 24.0107H27.4748" stroke="black" stroke-width="1.6" stroke-linecap="round" stroke-linejoin="round"/>
</svg>
