<svg width="48" height="48" viewBox="0 0 48 48" fill="none" xmlns="http://www.w3.org/2000/svg">
<path d="M37.7097 37.6851L34.2811 34.1994C33.7576 33.6653 33.4644 32.9473 33.4644 32.1994C33.4644 31.4516 33.7576 30.7335 34.2811 30.1994L35.7554 28.708C36.2789 28.1739 36.5721 27.4559 36.5721 26.708C36.5721 25.9601 36.2789 25.2421 35.7554 24.708L34.2926 23.2337C33.769 22.6997 33.4758 21.9816 33.4758 21.2337C33.4758 20.4859 33.769 19.7678 34.2926 19.2337L35.7554 17.7594C36.2789 17.2253 36.5721 16.5073 36.5721 15.7594C36.5721 15.0116 36.2789 14.2935 35.7554 13.7594L32.2754 10.2852" stroke="black" stroke-width="1.6" stroke-linecap="round" stroke-linejoin="round"/>
<path d="M30.3894 37.6851L26.9608 34.1994C26.4373 33.6653 26.144 32.9473 26.144 32.1994C26.144 31.4516 26.4373 30.7335 26.9608 30.1994L28.4351 28.708C28.9586 28.1739 29.2518 27.4559 29.2518 26.708C29.2518 25.9601 28.9586 25.2421 28.4351 24.708L26.9722 23.2337C26.4487 22.6997 26.1555 21.9816 26.1555 21.2337C26.1555 20.4859 26.4487 19.7678 26.9722 19.2337L28.4293 17.7594C28.9528 17.2253 29.2461 16.5073 29.2461 15.7594C29.2461 15.0116 28.9528 14.2935 28.4293 13.7594L24.9551 10.2852" stroke="black" stroke-width="1.6" stroke-linecap="round" stroke-linejoin="round"/>
<path d="M23.0632 37.6851L19.6346 34.1994C19.1111 33.6653 18.8179 32.9473 18.8179 32.1994C18.8179 31.4516 19.1111 30.7335 19.6346 30.1994L21.109 28.708C21.6325 28.1739 21.9256 27.4559 21.9256 26.708C21.9256 25.9601 21.6325 25.2421 21.109 24.708L19.6403 23.2337C19.1168 22.6997 18.8236 21.9816 18.8236 21.2337C18.8236 20.4859 19.1168 19.7678 19.6403 19.2337L21.1032 17.7594C21.6267 17.2253 21.9199 16.5073 21.9199 15.7594C21.9199 15.0116 21.6267 14.2935 21.1032 13.7594L17.6289 10.2852" stroke="black" stroke-width="1.6" stroke-linecap="round" stroke-linejoin="round"/>
<path d="M15.7204 37.6851L12.2919 34.1994C11.7683 33.6653 11.4751 32.9473 11.4751 32.1994C11.4751 31.4516 11.7683 30.7335 12.2919 30.1994L13.7661 28.708C14.2896 28.1739 14.5829 27.4559 14.5829 26.708C14.5829 25.9601 14.2896 25.2421 13.7661 24.708L12.3033 23.2337C11.7798 22.6997 11.4865 21.9816 11.4865 21.2337C11.4865 20.4859 11.7798 19.7678 12.3033 19.2337L13.7604 17.7594C14.2839 17.2253 14.5771 16.5073 14.5771 15.7594C14.5771 15.0116 14.2839 14.2935 13.7604 13.7594L10.2861 10.2852" stroke="black" stroke-width="1.6" stroke-linecap="round" stroke-linejoin="round"/>
</svg>
