<svg width="48" height="48" viewBox="0 0 48 48" fill="none" xmlns="http://www.w3.org/2000/svg">
<path d="M37.6804 29.1714C36.68 26.3378 34.8255 23.8843 32.3724 22.1489C29.9192 20.4134 26.9882 19.4814 23.9833 19.4814C20.9783 19.4814 18.0473 20.4134 15.5942 22.1489C13.141 23.8843 11.2865 26.3378 10.2861 29.1714" stroke="black" stroke-width="1.6" stroke-linecap="round" stroke-linejoin="round"/>
<path d="M23.9834 19.2803V14.8574" stroke="black" stroke-width="1.6" stroke-linecap="round" stroke-linejoin="round"/>
<path d="M31.8174 21.4L34.9488 18.2686" stroke="black" stroke-width="1.6" stroke-linecap="round" stroke-linejoin="round"/>
<path d="M16.1833 21.4L13.0576 18.2686" stroke="black" stroke-width="1.6" stroke-linecap="round" stroke-linejoin="round"/>
<path d="M17.0693 26.3493C17.0693 24.9931 17.4715 23.6674 18.225 22.5398C18.9784 21.4121 20.0494 20.5332 21.3024 20.0142C22.5553 19.4952 23.9341 19.3594 25.2642 19.6239C26.5944 19.8885 27.8162 20.5416 28.7752 21.5006C29.7342 22.4596 30.3873 23.6814 30.6519 25.0116C30.9165 26.3417 30.7807 27.7205 30.2617 28.9735C29.7427 30.2265 28.8638 31.2974 27.7361 32.0508C26.6085 32.8043 25.2827 33.2065 23.9265 33.2065C22.1078 33.2065 20.3637 32.4841 19.0777 31.1981C17.7918 29.9121 17.0693 28.168 17.0693 26.3493Z" stroke="black" stroke-width="1.6" stroke-linecap="round" stroke-linejoin="round"/>
<path d="M20.8691 26.3485C20.868 25.7403 21.0474 25.1454 21.3845 24.6391C21.7216 24.1328 22.2013 23.7378 22.763 23.5042C23.3246 23.2707 23.943 23.2089 24.5397 23.3269C25.1364 23.4449 25.6847 23.7373 26.1152 24.167C26.5458 24.5967 26.8391 25.1445 26.9582 25.741C27.0773 26.3375 27.0168 26.956 26.7843 27.5181C26.5517 28.0801 26.1577 28.5606 25.652 28.8986C25.1463 29.2367 24.5517 29.4171 23.9434 29.4171C23.54 29.4179 23.1403 29.3391 22.7674 29.1852C22.3944 29.0313 22.0555 28.8054 21.7699 28.5204C21.4844 28.2354 21.2578 27.8969 21.1033 27.5242C20.9487 27.1515 20.8691 26.752 20.8691 26.3485V26.3485Z" stroke="black" stroke-width="1.6" stroke-linecap="round" stroke-linejoin="round"/>
</svg>
