<svg width="48" height="48" viewBox="0 0 48 48" fill="none" xmlns="http://www.w3.org/2000/svg">
<path d="M10.2861 34.8516C12.5376 34.8516 12.5376 37.7773 14.7947 37.7773C17.0519 37.7773 17.0518 34.8516 19.309 34.8516C21.5661 34.8516 21.5604 37.7773 23.8176 37.7773C26.0747 37.7773 26.0747 34.8516 28.3319 34.8516C30.589 34.8516 30.6175 37.7773 32.8461 37.7773C35.0747 37.7773 35.1318 34.8516 37.3604 34.8516" stroke="black" stroke-width="1.6" stroke-linecap="round" stroke-linejoin="round"/>
<path d="M23.9824 20.7043C23.3051 20.027 22.3865 19.6465 21.4287 19.6465C21.9035 19.6465 22.3735 19.5529 22.8121 19.3711C23.2506 19.1892 23.649 18.9227 23.9844 18.5867C24.3198 18.2508 24.5857 17.8519 24.7669 17.4131C24.948 16.9743 25.0409 16.5041 25.0401 16.0293C25.0401 16.9871 25.4206 17.9057 26.0979 18.5829C26.7752 19.2602 27.6938 19.6407 28.6516 19.6407C28.1768 19.6407 27.7067 19.7343 27.2682 19.9162C26.8297 20.098 26.4313 20.3645 26.0959 20.7005C25.7604 21.0364 25.4946 21.4353 25.3134 21.8741C25.1323 22.3129 25.0394 22.7832 25.0401 23.2579C25.0401 22.3001 24.6597 21.3816 23.9824 20.7043Z" stroke="black" stroke-width="1.6" stroke-linecap="round" stroke-linejoin="round"/>
<path d="M17.6972 14.3898C17.02 13.7125 16.1014 13.3321 15.1436 13.3321C15.6183 13.3321 16.0884 13.2385 16.5269 13.0566C16.9655 12.8748 17.3638 12.6082 17.6993 12.2723C18.0347 11.9363 18.3006 11.5375 18.4817 11.0987C18.6629 10.6598 18.7557 10.1896 18.755 9.71488C18.755 10.6727 19.1355 11.5912 19.8127 12.2685C20.49 12.9458 21.4086 13.3262 22.3664 13.3262C21.8917 13.3262 21.4216 13.4199 20.983 13.6017C20.5445 13.7836 20.1461 14.0501 19.8107 14.386C19.4753 14.722 19.2094 15.1208 19.0283 15.5596C18.8471 15.9985 18.7542 16.4687 18.755 16.9435C18.755 15.9857 18.3745 15.0671 17.6972 14.3898Z" stroke="black" stroke-width="1.6" stroke-linecap="round" stroke-linejoin="round"/>
<path d="M32.5553 14.8116C32.2704 14.8116 31.992 14.7272 31.7552 14.569C31.5184 14.4107 31.3339 14.1859 31.2249 13.9228C31.1159 13.6596 31.0873 13.3701 31.1429 13.0907C31.1985 12.8114 31.3356 12.5548 31.537 12.3534C31.7384 12.152 31.995 12.0149 32.2743 11.9593C32.5536 11.9037 32.8432 11.9323 33.1063 12.0413C33.3694 12.1503 33.5943 12.3348 33.7526 12.5716C33.9108 12.8084 33.9952 13.0869 33.9952 13.3717C33.9952 13.7536 33.8435 14.1198 33.5735 14.3899C33.3034 14.66 32.9372 14.8116 32.5553 14.8116Z" fill="black"/>
<path d="M37.3604 30.001H10.2861" stroke="black" stroke-width="1.6" stroke-linecap="round" stroke-linejoin="round"/>
</svg>
