<svg width="48" height="48" viewBox="0 0 48 48" fill="none" xmlns="http://www.w3.org/2000/svg">
<path d="M37.6176 23.988C37.6296 25.3857 37.2323 26.7563 36.4747 27.9309L36.3033 28.1708C33.549 32.1365 28.5833 35.3994 24.3033 37.6051C24.2168 37.65 24.1207 37.6735 24.0233 37.6737C23.9256 37.6751 23.8292 37.6515 23.7433 37.6051C19.4461 35.3937 14.3662 32.1137 11.6062 28.1194L11.4919 27.9594C10.7025 26.775 10.2829 25.3827 10.2862 23.9594V16.4623C10.2862 14.824 10.937 13.2528 12.0954 12.0944C13.2538 10.9359 14.825 10.2852 16.4633 10.2852H31.429C32.2402 10.2852 33.0435 10.4449 33.7929 10.7554C34.5423 11.0658 35.2233 11.5208 35.7969 12.0944C36.3705 12.668 36.8255 13.349 37.1359 14.0984C37.4464 14.8479 37.6061 15.6511 37.6061 16.4623V23.9594L37.6176 23.988Z" stroke="black" stroke-width="1.6" stroke-linecap="round" stroke-linejoin="round"/>
<path d="M18.5039 22.7598H29.521" stroke="black" stroke-width="1.6" stroke-linecap="round" stroke-linejoin="round"/>
<path d="M24.0117 28.2624V17.251" stroke="black" stroke-width="1.6" stroke-linecap="round" stroke-linejoin="round"/>
</svg>
