<svg width="48" height="48" viewBox="0 0 48 48" fill="none" xmlns="http://www.w3.org/2000/svg">
<path d="M15.9834 15.3887H32.0462C33.5512 15.3887 34.9945 15.9865 36.0586 17.0506C37.1227 18.1148 37.7206 19.5581 37.7206 21.063C37.7206 22.5679 37.1227 24.0111 36.0586 25.0753C34.9945 26.1394 33.5512 26.7372 32.0462 26.7372H15.9834" stroke="black" stroke-width="1.6" stroke-linecap="round" stroke-linejoin="round"/>
<path d="M15.9829 21.0635C14.478 21.0635 13.0347 20.4656 11.9706 19.4015C10.9064 18.3374 10.3086 16.8941 10.3086 15.3892C10.3086 13.8842 10.9064 12.4409 11.9706 11.3768C13.0347 10.3127 14.478 9.71484 15.9829 9.71484H34.9029C35.5973 9.79744 36.2374 10.1319 36.7017 10.6548C37.1661 11.1777 37.4226 11.8527 37.4226 12.552C37.4226 13.2514 37.1661 13.9264 36.7017 14.4493C36.2374 14.9722 35.5973 15.3066 34.9029 15.3892H25.6629" stroke="black" stroke-width="1.6" stroke-linecap="round" stroke-linejoin="round"/>
<path d="M21.2347 26.738C23.4791 26.738 25.6317 27.6296 27.2188 29.2167C28.8059 30.8038 29.6975 32.9564 29.6975 35.2009V35.2409C29.7452 35.6417 29.7074 36.0481 29.5866 36.4333C29.4658 36.8185 29.2647 37.1737 28.9967 37.4756C28.7286 37.7774 28.3996 38.019 28.0314 38.1845C27.6632 38.35 27.2641 38.4355 26.8604 38.4355C26.4567 38.4355 26.0576 38.35 25.6894 38.1845C25.3212 38.019 24.9922 37.7774 24.7241 37.4756C24.4561 37.1737 24.255 36.8185 24.1342 36.4333C24.0134 36.0481 23.9755 35.6417 24.0232 35.2409V35.2409C24.0232 34.4831 23.7222 33.7564 23.1864 33.2206C22.6506 32.6847 21.9238 32.3837 21.1661 32.3837H15.9604C14.4555 32.3837 13.0122 31.7859 11.948 30.7217C10.8839 29.6576 10.2861 28.2143 10.2861 26.7094C10.2861 25.2045 10.8839 23.7613 11.948 22.6971C13.0122 21.633 14.4555 21.0352 15.9604 21.0352H32.5318" stroke="black" stroke-width="1.6" stroke-linecap="round" stroke-linejoin="round"/>
</svg>
