<svg width="48" height="48" viewBox="0 0 48 48" fill="none" xmlns="http://www.w3.org/2000/svg">
<path d="M34.7776 24.0978C35.578 23.7581 36.2713 23.2077 36.784 22.5054C37.2966 21.803 37.6093 20.9749 37.6888 20.109C37.7684 19.2432 37.6118 18.3719 37.2357 17.5879C36.8596 16.8039 36.2781 16.1365 35.553 15.6566C34.8279 15.1767 33.9863 14.9022 33.1177 14.8625C32.2491 14.8227 31.3859 15.0191 30.62 15.4307C29.854 15.8423 29.214 16.4537 28.7678 17.2001C28.3216 17.9464 28.0861 18.7997 28.0861 19.6692C28.0875 19.9857 28.1181 20.3013 28.1776 20.6121H19.8061C19.8685 20.3017 19.8991 19.9858 19.8976 19.6692C19.8961 18.8015 19.6596 17.9503 19.2134 17.2061C18.7671 16.4619 18.1277 15.8524 17.3629 15.4423C16.5982 15.0322 15.7367 14.8369 14.8698 14.877C14.003 14.9171 13.1632 15.1911 12.4396 15.67C11.7159 16.1489 11.1355 16.8148 10.7598 17.597C10.3842 18.3793 10.2273 19.2486 10.3059 20.1128C10.3845 20.977 10.6956 21.8038 11.2063 22.5055C11.7169 23.2071 12.408 23.7573 13.2061 24.0978C12.4077 24.4384 11.7165 24.9889 11.2058 25.6908C10.6952 26.3927 10.3841 27.2198 10.3058 28.0842C10.2274 28.9487 10.3846 29.8182 10.7607 30.6005C11.1368 31.3827 11.7178 32.0486 12.4419 32.5272C13.1661 33.0058 14.0063 33.2794 14.8734 33.3189C15.7405 33.3583 16.6021 33.1622 17.3667 32.7513C18.1313 32.3404 18.7703 31.7301 19.2159 30.9852C19.6616 30.2403 19.8971 29.3887 19.8976 28.5207C19.8969 28.2039 19.8644 27.888 19.8004 27.5778H28.1833C28.1221 27.8884 28.0896 28.2041 28.0861 28.5207C28.0866 29.3887 28.3221 30.2403 28.7678 30.9852C29.2134 31.7301 29.8524 32.3404 30.617 32.7513C31.3816 33.1622 32.2432 33.3583 33.1103 33.3189C33.9774 33.2794 34.8176 33.0058 35.5417 32.5272C36.2659 32.0486 36.8468 31.3827 37.223 30.6005C37.5991 29.8182 37.7563 28.9487 37.6779 28.0842C37.5996 27.2198 37.2885 26.3927 36.7779 25.6908C36.2672 24.9889 35.5759 24.4384 34.7776 24.0978Z" stroke="black" stroke-width="1.6" stroke-linecap="round" stroke-linejoin="round"/>
</svg>
