<svg width="48" height="48" viewBox="0 0 48 48" fill="none" xmlns="http://www.w3.org/2000/svg">
<path d="M30.8574 10.2852C32.676 10.2852 34.4201 11.0076 35.7061 12.2935C36.9921 13.5795 37.7145 15.3237 37.7145 17.1423V30.8566C37.7145 32.6752 36.9921 34.4193 35.7061 35.7053C34.4201 36.9912 32.676 37.7137 30.8574 37.7137H22.5088L27.4288 32.7937" stroke="black" stroke-width="1.6" stroke-linecap="round" stroke-linejoin="round"/>
<path d="M17.1433 37.7137C15.3246 37.7137 13.5805 36.9912 12.2945 35.7053C11.0086 34.4193 10.2861 32.6752 10.2861 30.8566V17.1423C10.2861 15.3237 11.0086 13.5795 12.2945 12.2935C13.5805 11.0076 15.3246 10.2852 17.1433 10.2852H25.4861L20.5718 15.1994" stroke="black" stroke-width="1.6" stroke-linecap="round" stroke-linejoin="round"/>
<path d="M24.0005 29.3768C23.9571 29.3854 23.9124 29.3854 23.869 29.3768C21.8555 28.3403 20.1255 26.8279 18.829 24.9711L18.7776 24.8968C18.4491 24.3968 18.2619 23.8173 18.2356 23.2197C18.2094 22.622 18.3451 22.0283 18.6284 21.5015C18.9118 20.9746 19.3322 20.534 19.8453 20.2264C20.3584 19.9188 20.9451 19.7555 21.5433 19.7539C21.854 20.0962 22.2328 20.3698 22.6555 20.557C23.0782 20.7442 23.5353 20.8409 23.9976 20.8409C24.4599 20.8409 24.9171 20.7442 25.3397 20.557C25.7624 20.3698 26.1412 20.0962 26.4519 19.7539C27.0503 19.7554 27.6373 19.9183 28.1509 20.2255C28.6645 20.5327 29.0856 20.9729 29.37 21.4994C29.6543 22.026 29.7913 22.6196 29.7665 23.2175C29.7417 23.8154 29.556 24.3955 29.229 24.8968L29.149 25.0054C27.8581 26.8548 26.1335 28.3596 24.1262 29.3882C24.0839 29.3923 24.0413 29.3885 24.0005 29.3768V29.3768Z" stroke="black" stroke-width="1.6" stroke-linecap="round" stroke-linejoin="round"/>
</svg>
